<?xml version="1.0" encoding="UTF-8" standalone="no"?>
<svg id="svg2" xmlns:rdf="http://www.w3.org/1999/02/22-rdf-syntax-ns#" xmlns="http://www.w3.org/2000/svg" height="31.504" width="28.5" version="1.1" xmlns:cc="http://creativecommons.org/ns#" xmlns:dc="http://purl.org/dc/elements/1.1/">
 <defs id="defs92">
  <filter id="filter3069" height="1" width="1" color-interpolation-filters="sRGB" y="0" x="0">
   <feColorMatrix id="feColorMatrix3071" values="1" type="saturate" result="fbSourceGraphic"/>
   <feColorMatrix id="feColorMatrix3073" values="-1 0 0 0 1 0 -1 0 0 1 0 0 -1 0 1 0 0 0 1 0 " in="fbSourceGraphic"/>
  </filter>
 </defs>
 <metadata id="metadata180">
  <rdf:RDF>
   <cc:Work rdf:about="">
    <dc:format>image/svg+xml</dc:format>
    <dc:type rdf:resource="http://purl.org/dc/dcmitype/StillImage"/>
    <dc:title/>
   </cc:Work>
  </rdf:RDF>
 </metadata>
<!-- white king //-->
 <g id="g4" stroke-linejoin="round" transform="translate(-188.24982,-8.2459203)" stroke="#000" stroke-linecap="round" stroke-miterlimit="4" stroke-dasharray="none" stroke-width="1.5">
  <path id="path6" stroke-linejoin="miter" fill="none" d="M22.5,11.63,22.5,6"/>
  <path id="path8" stroke-linejoin="miter" fill="none" d="m20,8,5,0"/>
  <path id="path10" stroke-linejoin="miter" stroke-linecap="butt" fill="#FFF" d="m22.5,25s4.5-7.5,3-10.5-1-2.5-3-2.5-3,2.5-3,2.5c-1.5,3,3,10.5,3,10.5"/>
  <path id="path12" d="m11.5,37c5.5,3.5,15.5,3.5,21,0v-7s9-4.5,6-10.5c-4-6.5-13.5-3.5-16,4v3.5-3.5c-3.5-7.5-13-10.5-16-4-3,6,5,10,5,10v7.5z" fill="#FFF"/>
  <path id="path14" d="M11.5,30c5.5-3,15.5-3,21,0" fill="none"/>
  <path id="path16" d="m11.5,33.5c5.5-3,15.5-3,21,0" fill="none"/>
  <path id="path18" d="M11.5,37c5.5-3,15.5-3,21,0" fill="none"/>
 </g>
<!-- white queen //-->
 <g id="g20" stroke-linejoin="round" fill-rule="evenodd" transform="translate(-143.24982,-8.2459203)" stroke="#000" stroke-linecap="round" stroke-miterlimit="4" stroke-dasharray="none" stroke-width="1.5" fill="#FFF">
  <path id="path22" transform="translate(-1,-1)" d="m9,13a2,2,0,1,1,-4,0,2,2,0,1,1,4,0z"/>
  <path id="path24" transform="translate(15.5,-5.5)" d="m9,13a2,2,0,1,1,-4,0,2,2,0,1,1,4,0z"/>
  <path id="path26" transform="translate(32,-1)" d="m9,13a2,2,0,1,1,-4,0,2,2,0,1,1,4,0z"/>
  <path id="path28" transform="translate(7,-4.5)" d="m9,13a2,2,0,1,1,-4,0,2,2,0,1,1,4,0z"/>
  <path id="path30" transform="translate(24,-4)" d="m9,13a2,2,0,1,1,-4,0,2,2,0,1,1,4,0z"/>
  <path id="path32" stroke-linecap="butt" d="m9,26c8.5-1.5,21-1.5,27,0l2-12-7,11v-14l-5.5,13.5-3-15-3,15-5.5-14v14.5l-7-11,2,12z"/>
  <path id="path34" stroke-linecap="butt" d="m9,26c0,2,1.5,2,2.5,4,1,1.5,1,1,0.5,3.5-1.5,1-1.5,2.5-1.5,2.5-1.5,1.5,0.5,2.5,0.5,2.5,6.5,1,16.5,1,23,0,0,0,1.5-1,0-2.5,0,0,0.5-1.5-1-2.5-0.5-2.5-0.5-2,0.5-3.5,1-2,2.5-2,2.5-4-8.5-1.5-18.5-1.5-27,0z"/>
  <path id="path36" d="M11.5,30c3.5-1,18.5-1,22,0" fill="none"/>
  <path id="path38" d="m12,33.5c6-1,15-1,21,0" fill="none"/>
 </g>
<!-- white bishop //-->
 <g id="g40" stroke-linejoin="round" transform="translate(-98.249822,-8.2459203)" stroke="#000" stroke-linecap="round" stroke-miterlimit="4" stroke-dasharray="none" stroke-width="1.5">
  <g id="g42" stroke-linecap="butt" fill="#FFF">
   <path id="path44" d="m9,36c3.39-0.97,10.11,0.43,13.5-2,3.39,2.43,10.11,1.03,13.5,2,0,0,1.65,0.54,3,2-0.68,0.97-1.65,0.99-3,0.5-3.39-0.97-10.11,0.46-13.5-1-3.39,1.46-10.11,0.03-13.5,1-1.354,0.49-2.323,0.47-3-0.5,1.354-1.94,3-2,3-2z"/>
   <path id="path46" d="m15,32c2.5,2.5,12.5,2.5,15,0,0.5-1.5,0-2,0-2,0-2.5-2.5-4-2.5-4,5.5-1.5,6-11.5-5-15.5-11,4-10.5,14-5,15.5,0,0-2.5,1.5-2.5,4,0,0-0.5,0.5,0,2z"/>
   <path id="path48" d="m25,8a2.5,2.5,0,1,1,-5,0,2.5,2.5,0,1,1,5,0z"/>
  </g>
  <path id="path50" stroke-linejoin="miter" fill="none" d="m17.5,26,10,0m-12.5,4,15,0m-7.5-14.5,0,5m-2.5-2.5h5"/>
 </g>
<!-- white knight //-->
 <g id="g52" stroke-linejoin="round" transform="translate(-53.249826,-8.2459203)" stroke="#000" stroke-linecap="round" stroke-miterlimit="4" stroke-dasharray="none" stroke-width="1.5">
  <path id="path54" d="m22,10c10.5,1,16.5,8,16,29h-23c0-9,10-6.5,8-21" fill="#FFF"/>
  <path id="path56" d="m24,18c0.38,2.91-5.55,7.37-8,9-3,2-2.82,4.34-5,4-1.042-0.94,1.41-3.04,0-3-1,0,0.19,1.23-1,2-1,0-4.003,1-4-4,0-2,6-12,6-12s1.89-1.9,2-3.5c-0.73-0.994-0.5-2-0.5-3,1-1,3,2.5,3,2.5h2s0.78-1.992,2.5-3c1,0,1,3,1,3" fill="#FFF"/>
  <path id="path58" d="m9.5,25.5a0.5,0.5,0,1,1,-1,0,0.5,0.5,0,1,1,1,0z" fill="#000"/>
  <path id="path60" transform="matrix(0.866,0.5,-0.5,0.866,9.693,-5.173)" fill="#000" d="m15,15.5a0.5,1.5,0,1,1,-1,0,0.5,1.5,0,1,1,1,0z"/>
 </g>
<!-- white rook //-->
 <g id="g62" stroke-linejoin="round" fill-rule="evenodd" transform="translate(-8.2498216,-8.2459203)" filter="url(#filter3069)" stroke="#000" stroke-linecap="round" stroke-miterlimit="4" stroke-dasharray="none" stroke-width="1.5" fill="#FFF">
  <path id="path64" stroke-linecap="butt" d="m9,39,27,0,0-3-27,0,0,3z"/>
  <path id="path66" stroke-linecap="butt" d="m12,36,0-4,21,0,0,4-21,0z"/>
  <path id="path68" stroke-linecap="butt" d="m11,14,0-5,4,0,0,2,5,0,0-2,5,0,0,2,5,0,0-2,4,0,0,5"/>
  <path id="path70" d="m34,14-3,3-17,0-3-3"/>
  <path id="path72" stroke-linejoin="miter" stroke-linecap="butt" d="m31,17,0,12.5-17,0,0-12.5"/>
  <path id="path74" d="m31,29.5,1.5,2.5-20,0,1.5-2.5"/>
  <path id="path76" stroke-linejoin="miter" stroke="#000" fill="none" d="m11,14,23,0"/>
 </g>
<!-- white pawn //-->
 <g id="g78" transform="translate(36.75018,-8.2459203)">
  <path id="path80" stroke-linejoin="miter" d="m22,9c-2.21,0-4,1.79-4,4,0,0.89,0.29,1.71,0.78,2.38-1.95,1.12-3.28,3.21-3.28,5.62,0,2.03,0.94,3.84,2.41,5.03-3,1.06-7.41,5.55-7.41,13.47h23c0-7.92-4.41-12.41-7.41-13.47,1.47-1.19,2.41-3,2.41-5.03,0-2.41-1.33-4.5-3.28-5.62,0.49-0.67,0.78-1.49,0.78-2.38,0-2.21-1.79-4-4-4z" fill-rule="nonzero" stroke="#000" stroke-linecap="round" stroke-miterlimit="4" stroke-dasharray="none" stroke-width="1.5" fill="#FFF"/>
 </g>
<!-- black king //-->
 <g id="g82" stroke-linejoin="round" transform="translate(-188.24982,36.75408)" stroke="#000" stroke-linecap="round" stroke-miterlimit="4" stroke-dasharray="none" stroke-width="1.5">
  <path id="path84" stroke-linejoin="miter" stroke="#000" fill="none" d="M22.5,11.63,22.5,6"/>
  <path id="path86" stroke-linejoin="miter" stroke-linecap="butt" fill="#000" d="m22.5,25s4.5-7.5,3-10.5-1-2.5-3-2.5-3,2.5-3,2.5c-1.5,3,3,10.5,3,10.5"/>
  <path id="path88" d="m11.5,37c5.5,3.5,15.5,3.5,21,0v-7s9-4.5,6-10.5c-4-6.5-13.5-3.5-16,4v3.5-3.5c-3.5-7.5-13-10.5-16-4-3,6,5,10,5,10v7.5z" stroke="#000" fill="#000"/>
  <path id="path90" stroke-linejoin="miter" stroke="#000" fill="none" d="m20,8,5,0"/>
  <path id="path92" d="m32,29.5s8.5-4,6.03-9.65c-3.88-5.85-13.03-1.85-15.53,4.65l0.01,2.1-0.01-2.1c-2.5-6.5-12.594-10.5-15.503-4.65-2.497,5.65,4.853,9,4.853,9" stroke="#FFF" fill="none"/>
  <path id="path94" d="m11.5,30c5.5-3,15.5-3,21,0m-21,3.5c5.5-3,15.5-3,21,0m-21,3.5c5.5-3,15.5-3,21,0" stroke="#FFF" fill="none"/>
 </g>
<!-- black queen //-->
 <g id="g96" stroke-linejoin="round" fill-rule="evenodd" transform="translate(-143.24982,36.75408)" stroke="#000" stroke-linecap="round" stroke-miterlimit="4" stroke-dasharray="none" stroke-width="1.5">
  <g id="g98" fill="#000">
   <circle id="circle100" cy="12" cx="6" r="2.75" d="M 8.75,12 C 8.75,13.518783 7.5187831,14.75 6,14.75 4.4812169,14.75 3.25,13.518783 3.25,12 3.25,10.481217 4.4812169,9.25 6,9.25 c 1.5187831,0 2.75,1.231217 2.75,2.75 z"/>
   <circle id="circle102" cy="9" cx="14" r="2.75" d="m 16.75,9 c 0,1.518783 -1.231217,2.75 -2.75,2.75 -1.518783,0 -2.75,-1.231217 -2.75,-2.75 0,-1.5187831 1.231217,-2.75 2.75,-2.75 1.518783,0 2.75,1.2312169 2.75,2.75 z"/>
   <circle id="circle104" cy="8" cx="22.5" r="2.75" d="m 25.25,8 c 0,1.5187831 -1.231217,2.75 -2.75,2.75 -1.518783,0 -2.75,-1.2312169 -2.75,-2.75 0,-1.5187831 1.231217,-2.75 2.75,-2.75 1.518783,0 2.75,1.2312169 2.75,2.75 z"/>
   <circle id="circle106" cy="9" cx="31" r="2.75" d="m 33.75,9 c 0,1.518783 -1.231217,2.75 -2.75,2.75 -1.518783,0 -2.75,-1.231217 -2.75,-2.75 0,-1.5187831 1.231217,-2.75 2.75,-2.75 1.518783,0 2.75,1.2312169 2.75,2.75 z"/>
   <circle id="circle108" cy="12" cx="39" r="2.75" d="m 41.75,12 c 0,1.518783 -1.231217,2.75 -2.75,2.75 -1.518783,0 -2.75,-1.231217 -2.75,-2.75 0,-1.518783 1.231217,-2.75 2.75,-2.75 1.518783,0 2.75,1.231217 2.75,2.75 z"/>
  </g>
  <path id="path110" stroke="#000" stroke-linecap="butt" d="m9,26c8.5-1.5,21-1.5,27,0l2.5-12.5-7.5,11.5-0.3-14.1-5.2,13.6-3-14.5-3,14.5-5.2-13.6-0.3,14.1-7.5-11.5,2.5,12.5z"/>
  <path id="path112" stroke-linecap="butt" d="m9,26c0,2,1.5,2,2.5,4,1,1.5,1,1,0.5,3.5-1.5,1-1.5,2.5-1.5,2.5-1.5,1.5,0.5,2.5,0.5,2.5,6.5,1,16.5,1,23,0,0,0,1.5-1,0-2.5,0,0,0.5-1.5-1-2.5-0.5-2.5-0.5-2,0.5-3.5,1-2,2.5-2,2.5-4-8.5-1.5-18.5-1.5-27,0z"/>
  <path id="path114" stroke="#000" stroke-linecap="butt" fill="none" d="m11,38.5a35,35,1,0,0,23,0"/>
  <path id="path116" d="m11,29a35,35,1,0,1,23,0" stroke="#FFF" fill="none"/>
  <path id="path118" d="m12.5,31.5,20,0" stroke="#FFF" fill="none"/>
  <path id="path120" d="m11.5,34.5a35,35,1,0,0,22,0" stroke="#FFF" fill="none"/>
  <path id="path122" d="m10.5,37.5a35,35,1,0,0,24,0" stroke="#FFF" fill="none"/>
 </g>
<!-- black bishop //-->
 <g id="g124" stroke-linejoin="round" transform="translate(-98.249822,36.75408)" stroke-linecap="round" stroke-dasharray="none" stroke-miterlimit="4" stroke-width="1.5">
  <g id="g126" stroke="#000" stroke-linecap="butt" fill="#000">
   <path id="path128" d="m9,36c3.39-0.97,10.11,0.43,13.5-2,3.39,2.43,10.11,1.03,13.5,2,0,0,1.65,0.54,3,2-0.68,0.97-1.65,0.99-3,0.5-3.39-0.97-10.11,0.46-13.5-1-3.39,1.46-10.11,0.03-13.5,1-1.354,0.49-2.323,0.47-3-0.5,1.354-1.94,3-2,3-2z"/>
   <path id="path130" d="m15,32c2.5,2.5,12.5,2.5,15,0,0.5-1.5,0-2,0-2,0-2.5-2.5-4-2.5-4,5.5-1.5,6-11.5-5-15.5-11,4-10.5,14-5,15.5,0,0-2.5,1.5-2.5,4,0,0-0.5,0.5,0,2z"/>
   <path id="path132" d="m25,8a2.5,2.5,0,1,1,-5,0,2.5,2.5,0,1,1,5,0z"/>
  </g>
  <path id="path134" stroke-linejoin="miter" stroke="#FFF" fill="none" d="m17.5,26,10,0m-12.5,4,15,0m-7.5-14.5,0,5m-2.5-2.5h5"/>
 </g>
<!-- black knight //-->
 <g id="g136" stroke-linejoin="round" transform="translate(-53.249826,36.75408)" stroke="#000" stroke-linecap="round" stroke-miterlimit="4" stroke-dasharray="none" stroke-width="1.5">
  <path id="path138" d="m22,10c10.5,1,16.5,8,16,29h-23c0-9,10-6.5,8-21" stroke="#000" fill="#000"/>
  <path id="path140" d="m24,18c0.38,2.91-5.55,7.37-8,9-3,2-2.82,4.34-5,4-1.042-0.94,1.41-3.04,0-3-1,0,0.19,1.23-1,2-1,0-4.003,1-4-4,0-2,6-12,6-12s1.89-1.9,2-3.5c-0.73-0.994-0.5-2-0.5-3,1-1,3,2.5,3,2.5h2s0.78-1.992,2.5-3c1,0,1,3,1,3" stroke="#000" fill="#000"/>
  <path id="path142" d="m9.5,25.5a0.5,0.5,0,1,1,-1,0,0.5,0.5,0,1,1,1,0z" stroke="#FFF" fill="#FFF"/>
  <path id="path144" stroke="#FFF" transform="matrix(0.866,0.5,-0.5,0.866,9.693,-5.173)" fill="#FFF" d="m15,15.5a0.5,1.5,0,1,1,-1,0,0.5,1.5,0,1,1,1,0z"/>
  <path id="path146" d="M24.55,10.4,24.1,11.85,24.6,12c3.15,1,5.65,2.49,7.9,6.75s3.25,10.31,2.75,20.25l-0.05,0.5h2.25l0.05-0.5c0.5-10.06-0.88-16.85-3.25-21.34s-5.79-6.64-9.19-7.16l-0.51-0.1z" fill="#FFF"/>
 </g>
<!-- black rook //-->
 <g id="g148" stroke-linejoin="round" fill-rule="evenodd" transform="translate(-8.2498216,36.75408)" stroke="#000" stroke-linecap="round" stroke-miterlimit="4" stroke-dasharray="none" stroke-width="1.5">
  <path id="path150" stroke-linecap="butt" d="m9,39,27,0,0-3-27,0,0,3z"/>
  <path id="path152" stroke-linecap="butt" d="m12.5,32,1.5-2.5,17,0,1.5,2.5-20,0z"/>
  <path id="path154" stroke-linecap="butt" d="m12,36,0-4,21,0,0,4-21,0z"/>
  <path id="path156" stroke-linejoin="miter" stroke-linecap="butt" d="m14,29.5,0-13,17,0,0,13-17,0z"/>
  <path id="path158" stroke-linecap="butt" d="m14,16.5-3-2.5,23,0-3,2.5-17,0z"/>
  <path id="path160" stroke-linecap="butt" d="m11,14,0-5,4,0,0,2,5,0,0-2,5,0,0,2,5,0,0-2,4,0,0,5-23,0z"/>
  <path id="path162" stroke-linejoin="miter" d="m12,35.5,21,0,0,0" stroke="#FFF" stroke-width="1" fill="none"/>
  <path id="path164" stroke-linejoin="miter" d="m13,31.5,19,0" stroke="#FFF" stroke-width="1" fill="none"/>
  <path id="path166" stroke-linejoin="miter" d="m14,29.5,17,0" stroke="#FFF" stroke-width="1" fill="none"/>
  <path id="path168" stroke-linejoin="miter" d="m14,16.5,17,0" stroke="#FFF" stroke-width="1" fill="none"/>
  <path id="path170" stroke-linejoin="miter" d="m11,14,23,0" stroke="#FFF" stroke-width="1" fill="none"/>
 </g>
<!-- black pawn //-->
 <g id="g172" transform="translate(36.75018,36.75408)">
  <path id="path174" stroke-linejoin="miter" d="m22,9c-2.21,0-4,1.79-4,4,0,0.89,0.29,1.71,0.78,2.38-1.95,1.12-3.28,3.21-3.28,5.62,0,2.03,0.94,3.84,2.41,5.03-3,1.06-7.41,5.55-7.41,13.47h23c0-7.92-4.41-12.41-7.41-13.47,1.47-1.19,2.41-3,2.41-5.03,0-2.41-1.33-4.5-3.28-5.62,0.49-0.67,0.78-1.49,0.78-2.38,0-2.21-1.79-4-4-4z" fill-rule="nonzero" stroke="#000" stroke-linecap="round" stroke-miterlimit="4" stroke-dasharray="none" stroke-width="1.5" fill="#000"/>
 </g>
</svg>
